<svg xmlns="http://www.w3.org/2000/svg" xmlns:xlink="http://www.w3.org/1999/xlink" width="220" zoomAndPan="magnify" viewBox="0 0 165 56.249996" height="75" preserveAspectRatio="xMidYMid meet" version="1.0"><defs><g/><clipPath id="c5efc074b3"><path d="M 1.085938 0 L 163.914062 0 L 163.914062 55.511719 L 1.085938 55.511719 Z M 1.085938 0 " clip-rule="nonzero"/></clipPath></defs><g clip-path="url(#c5efc074b3)"><path fill="#ffffff" d="M 1.085938 0 L 163.914062 0 L 163.914062 55.511719 L 1.085938 55.511719 Z M 1.085938 0 " fill-opacity="1" fill-rule="nonzero"/><path fill="#000000" d="M 1.085938 0 L 163.914062 0 L 163.914062 55.511719 L 1.085938 55.511719 Z M 1.085938 0 " fill-opacity="1" fill-rule="nonzero"/></g><g fill="#ffffff" fill-opacity="1"><g transform="translate(95.338474, 34.519617)"><g><path d="M 4.890625 -6.28125 L 4.890625 -4.5625 L 3.484375 -4.5625 L 3.484375 0 L 1.78125 0 L 1.78125 -4.5625 L 0.359375 -4.5625 L 0.359375 -6.28125 L 1.78125 -6.28125 L 1.78125 -8.46875 L 3.484375 -8.46875 L 3.484375 -6.28125 Z M 4.890625 -6.28125 "/></g></g></g><g fill="#ffffff" fill-opacity="1"><g transform="translate(100.58843, 34.519617)"><g><path d="M 6.40625 -2.859375 C 6.414062 -2.691406 6.414062 -2.59375 6.40625 -2.5625 L 1.828125 -2.578125 C 1.890625 -2.390625 2.007812 -2.207031 2.1875 -2.03125 C 2.5 -1.726562 2.863281 -1.578125 3.28125 -1.578125 C 3.71875 -1.597656 4.082031 -1.753906 4.375 -2.046875 L 4.421875 -2.09375 L 6.015625 -1.59375 C 5.660156 -1.050781 5.289062 -0.660156 4.90625 -0.421875 C 4.476562 -0.148438 3.941406 -0.0078125 3.296875 0 C 2.429688 0.0078125 1.691406 -0.289062 1.078125 -0.90625 C 0.453125 -1.507812 0.140625 -2.25 0.140625 -3.125 C 0.128906 -3.976562 0.425781 -4.71875 1.03125 -5.34375 C 1.644531 -5.957031 2.382812 -6.269531 3.25 -6.28125 C 4.113281 -6.28125 4.851562 -5.976562 5.46875 -5.375 C 6.082031 -4.757812 6.394531 -4.019531 6.40625 -3.15625 Z M 3.265625 -4.6875 C 2.835938 -4.6875 2.472656 -4.535156 2.171875 -4.234375 C 2.015625 -4.054688 1.90625 -3.882812 1.84375 -3.71875 L 4.703125 -3.71875 C 4.640625 -3.882812 4.523438 -4.054688 4.359375 -4.234375 C 4.054688 -4.535156 3.691406 -4.6875 3.265625 -4.6875 Z M 3.265625 -4.6875 "/></g></g></g><g fill="#ffffff" fill-opacity="1"><g transform="translate(107.129558, 34.519617)"><g><path d="M 5.390625 -0.75 C 4.796875 -0.25 4.101562 0 3.3125 0 C 2.445312 -0.0078125 1.707031 -0.320312 1.09375 -0.9375 C 0.488281 -1.550781 0.1875 -2.289062 0.1875 -3.15625 C 0.195312 -4.019531 0.515625 -4.757812 1.140625 -5.375 C 1.753906 -5.976562 2.488281 -6.28125 3.34375 -6.28125 C 4.125 -6.269531 4.8125 -6.007812 5.40625 -5.5 L 4.265625 -4.375 C 3.984375 -4.582031 3.675781 -4.6875 3.34375 -4.6875 C 2.914062 -4.6875 2.550781 -4.535156 2.25 -4.234375 C 1.945312 -3.941406 1.796875 -3.578125 1.796875 -3.140625 C 1.773438 -2.722656 1.921875 -2.359375 2.234375 -2.046875 C 2.523438 -1.753906 2.890625 -1.597656 3.328125 -1.578125 C 3.671875 -1.578125 3.976562 -1.679688 4.25 -1.890625 Z M 5.390625 -0.75 "/></g></g></g><g fill="#ffffff" fill-opacity="1"><g transform="translate(112.708396, 34.519617)"><g><path d="M 6.765625 0 L 5.171875 0 L 5.171875 -3.125 C 5.171875 -3.550781 5.019531 -3.914062 4.71875 -4.21875 C 4.414062 -4.519531 4.050781 -4.671875 3.625 -4.671875 C 3.195312 -4.671875 2.828125 -4.515625 2.515625 -4.203125 C 2.210938 -3.890625 2.066406 -3.523438 2.078125 -3.109375 L 2.078125 0 L 0.359375 0 L 0.359375 -7.921875 L 2.078125 -7.921875 L 2.078125 -5.484375 C 2.453125 -5.941406 2.960938 -6.195312 3.609375 -6.25 C 4.503906 -6.320312 5.242188 -6.09375 5.828125 -5.5625 C 6.453125 -4.976562 6.765625 -4.164062 6.765625 -3.125 Z M 6.765625 0 "/></g></g></g><g fill="#ffffff" fill-opacity="1"><g transform="translate(45.164124, 30.710793)"><g><path d="M 7.84375 -5.390625 C 7.875 -5.398438 7.9375 -5.40625 8.03125 -5.40625 C 8.164062 -5.40625 8.28125 -5.378906 8.375 -5.328125 C 8.46875 -5.273438 8.507812 -5.1875 8.5 -5.0625 C 8.414062 -4.394531 8.347656 -3.8125 8.296875 -3.3125 C 8.242188 -2.8125 8.203125 -2.394531 8.171875 -2.0625 L 8 -0.5 C 7.976562 -0.332031 7.851562 -0.1875 7.625 -0.0625 C 7.40625 0.0625 7.1875 0.125 6.96875 0.125 C 6.84375 0.125 6.742188 0.09375 6.671875 0.03125 C 6.597656 -0.0195312 6.566406 -0.0976562 6.578125 -0.203125 C 6.617188 -0.640625 6.707031 -1.445312 6.84375 -2.625 C 6.976562 -3.800781 7.039062 -4.382812 7.03125 -4.375 C 6.820312 -3.644531 6.539062 -3 6.1875 -2.4375 C 5.84375 -1.882812 5.394531 -1.445312 4.84375 -1.125 C 4.59375 -0.976562 4.316406 -0.863281 4.015625 -0.78125 C 3.710938 -0.707031 3.40625 -0.671875 3.09375 -0.671875 C 2.4375 -0.671875 1.890625 -0.847656 1.453125 -1.203125 C 0.859375 -1.703125 0.5625 -2.359375 0.5625 -3.171875 C 0.5625 -4.085938 0.882812 -5.085938 1.53125 -6.171875 C 2.175781 -7.265625 2.867188 -8.222656 3.609375 -9.046875 C 4.171875 -9.679688 4.707031 -10.210938 5.21875 -10.640625 C 5.726562 -11.066406 6.273438 -11.363281 6.859375 -11.53125 C 7.078125 -11.582031 7.257812 -11.609375 7.40625 -11.609375 C 7.757812 -11.609375 8.023438 -11.5 8.203125 -11.28125 C 8.378906 -11.070312 8.46875 -10.785156 8.46875 -10.421875 C 8.46875 -10.234375 8.457031 -10.09375 8.4375 -10 C 8.414062 -9.832031 8.285156 -9.691406 8.046875 -9.578125 C 7.816406 -9.460938 7.59375 -9.40625 7.375 -9.40625 C 7.25 -9.40625 7.148438 -9.425781 7.078125 -9.46875 C 7.003906 -9.519531 6.976562 -9.597656 7 -9.703125 C 7.03125 -9.867188 7.046875 -10 7.046875 -10.09375 C 7.046875 -10.320312 6.976562 -10.503906 6.84375 -10.640625 C 6.519531 -10.421875 6.335938 -10.296875 6.296875 -10.265625 C 5.285156 -9.523438 4.320312 -8.4375 3.40625 -7 C 3.007812 -6.375 2.6875 -5.773438 2.4375 -5.203125 C 2.1875 -4.640625 2.0625 -4.082031 2.0625 -3.53125 C 2.0625 -3.1875 2.132812 -2.847656 2.28125 -2.515625 C 2.4375 -2.191406 2.660156 -1.960938 2.953125 -1.828125 C 3.179688 -1.710938 3.394531 -1.65625 3.59375 -1.65625 C 4.070312 -1.65625 4.472656 -1.90625 4.796875 -2.40625 C 5.128906 -2.914062 5.394531 -3.503906 5.59375 -4.171875 C 5.1875 -4.109375 4.882812 -4.070312 4.6875 -4.0625 L 4.546875 -4.046875 C 4.347656 -4.046875 4.25 -4.109375 4.25 -4.234375 C 4.25 -4.347656 4.328125 -4.484375 4.484375 -4.640625 C 4.648438 -4.796875 4.8125 -4.890625 4.96875 -4.921875 C 5.851562 -5.085938 6.8125 -5.242188 7.84375 -5.390625 Z M 7.84375 -5.390625 "/></g></g></g><g fill="#ffffff" fill-opacity="1"><g transform="translate(53.987754, 30.710793)"><g><path d="M 7.1875 -11.28125 C 7.25 -11.40625 7.390625 -11.515625 7.609375 -11.609375 C 7.828125 -11.703125 8.03125 -11.75 8.21875 -11.75 C 8.476562 -11.75 8.609375 -11.671875 8.609375 -11.515625 C 8.609375 -11.453125 8.597656 -11.398438 8.578125 -11.359375 C 7.972656 -9.847656 7.445312 -8.296875 7 -6.703125 L 7.375 -6.71875 C 7.675781 -6.726562 7.828125 -6.660156 7.828125 -6.515625 C 7.828125 -6.390625 7.71875 -6.242188 7.5 -6.078125 C 7.289062 -5.921875 7.09375 -5.832031 6.90625 -5.8125 L 6.75 -5.78125 C 6.363281 -4.269531 6.039062 -2.648438 5.78125 -0.921875 C 5.75 -0.742188 5.609375 -0.59375 5.359375 -0.46875 C 5.117188 -0.34375 4.878906 -0.28125 4.640625 -0.28125 C 4.515625 -0.28125 4.414062 -0.304688 4.34375 -0.359375 C 4.269531 -0.410156 4.238281 -0.488281 4.25 -0.59375 C 4.488281 -2.289062 4.816406 -3.945312 5.234375 -5.5625 C 4.347656 -5.394531 3.460938 -5.175781 2.578125 -4.90625 C 2.367188 -3.914062 2.148438 -2.679688 1.921875 -1.203125 C 1.890625 -1.035156 1.75 -0.882812 1.5 -0.75 C 1.257812 -0.625 1.019531 -0.5625 0.78125 -0.5625 C 0.644531 -0.5625 0.539062 -0.585938 0.46875 -0.640625 C 0.394531 -0.691406 0.367188 -0.773438 0.390625 -0.890625 C 0.578125 -2.179688 0.785156 -3.382812 1.015625 -4.5 C 0.828125 -4.539062 0.734375 -4.640625 0.734375 -4.796875 C 0.734375 -4.890625 0.769531 -4.976562 0.84375 -5.0625 C 0.925781 -5.15625 1.039062 -5.238281 1.1875 -5.3125 C 1.6875 -7.4375 2.296875 -9.351562 3.015625 -11.0625 C 3.066406 -11.1875 3.203125 -11.296875 3.421875 -11.390625 C 3.640625 -11.484375 3.851562 -11.53125 4.0625 -11.53125 C 4.3125 -11.53125 4.4375 -11.453125 4.4375 -11.296875 C 4.4375 -11.234375 4.425781 -11.179688 4.40625 -11.140625 C 3.800781 -9.578125 3.265625 -7.835938 2.796875 -5.921875 C 3.660156 -6.203125 4.566406 -6.410156 5.515625 -6.546875 C 6.003906 -8.253906 6.5625 -9.832031 7.1875 -11.28125 Z M 7.1875 -11.28125 "/></g></g></g><g fill="#ffffff" fill-opacity="1"><g transform="translate(62.071513, 30.710793)"><g><path d="M 4.953125 -2.015625 C 5.367188 -2.359375 5.78125 -2.859375 6.1875 -3.515625 C 6.601562 -4.179688 6.941406 -4.894531 7.203125 -5.65625 C 7.472656 -6.425781 7.609375 -7.144531 7.609375 -7.8125 C 7.609375 -8.539062 7.421875 -9.140625 7.046875 -9.609375 C 6.679688 -10.085938 6.097656 -10.375 5.296875 -10.46875 C 4.515625 -10.3125 3.691406 -9.378906 2.828125 -7.671875 C 2.085938 -6.210938 1.71875 -4.9375 1.71875 -3.84375 C 1.71875 -3.46875 1.757812 -3.109375 1.84375 -2.765625 C 1.96875 -2.328125 2.171875 -1.992188 2.453125 -1.765625 C 2.742188 -1.535156 3.082031 -1.421875 3.46875 -1.421875 C 3.976562 -1.421875 4.472656 -1.617188 4.953125 -2.015625 Z M 7.234375 -11.171875 C 7.828125 -10.898438 8.269531 -10.472656 8.5625 -9.890625 C 8.851562 -9.304688 9 -8.640625 9 -7.890625 C 9 -7.421875 8.929688 -6.894531 8.796875 -6.3125 C 8.492188 -5.113281 7.984375 -3.992188 7.265625 -2.953125 C 6.546875 -1.921875 5.671875 -1.179688 4.640625 -0.734375 C 4.109375 -0.503906 3.582031 -0.390625 3.0625 -0.390625 C 2.363281 -0.390625 1.757812 -0.585938 1.25 -0.984375 C 0.738281 -1.378906 0.425781 -1.941406 0.3125 -2.671875 C 0.28125 -2.921875 0.265625 -3.191406 0.265625 -3.484375 C 0.265625 -4.390625 0.453125 -5.328125 0.828125 -6.296875 C 1.203125 -7.265625 1.679688 -8.160156 2.265625 -8.984375 C 2.734375 -9.660156 3.300781 -10.25 3.96875 -10.75 C 4.644531 -11.25 5.328125 -11.5 6.015625 -11.5 C 6.421875 -11.5 6.816406 -11.394531 7.203125 -11.1875 Z M 7.234375 -11.171875 "/></g></g></g><g fill="#ffffff" fill-opacity="1"><g transform="translate(70.730726, 30.710793)"><g><path d="M 6.65625 -10.5625 C 6.664062 -10.726562 6.78125 -10.875 7 -11 C 7.226562 -11.125 7.453125 -11.1875 7.671875 -11.1875 C 7.953125 -11.1875 8.085938 -11.078125 8.078125 -10.859375 C 7.929688 -8.078125 7.640625 -5.582031 7.203125 -3.375 C 7.117188 -2.945312 7.035156 -2.601562 6.953125 -2.34375 C 6.867188 -2.082031 6.738281 -1.832031 6.5625 -1.59375 C 6.382812 -1.351562 6.148438 -1.148438 5.859375 -0.984375 C 5.378906 -0.710938 4.847656 -0.539062 4.265625 -0.46875 C 3.691406 -0.40625 3.003906 -0.378906 2.203125 -0.390625 L 1.84375 -0.390625 C 1.300781 -0.390625 0.882812 -0.445312 0.59375 -0.5625 C 0.300781 -0.675781 0.15625 -0.941406 0.15625 -1.359375 C 0.15625 -1.453125 0.160156 -1.523438 0.171875 -1.578125 C 0.242188 -2.148438 0.414062 -2.945312 0.6875 -3.96875 L 0.84375 -4.640625 C 1.1875 -6.003906 1.488281 -7.160156 1.75 -8.109375 C 2.007812 -9.054688 2.300781 -9.988281 2.625 -10.90625 C 2.664062 -11.039062 2.785156 -11.15625 2.984375 -11.25 C 3.179688 -11.351562 3.378906 -11.40625 3.578125 -11.40625 C 3.703125 -11.40625 3.804688 -11.378906 3.890625 -11.328125 C 3.972656 -11.273438 4.015625 -11.195312 4.015625 -11.09375 C 4.015625 -11.070312 4.003906 -11.023438 3.984375 -10.953125 C 3.585938 -9.734375 3.113281 -8.050781 2.5625 -5.90625 C 2.257812 -4.71875 2.039062 -3.789062 1.90625 -3.125 C 1.800781 -2.6875 1.722656 -2.320312 1.671875 -2.03125 C 1.648438 -1.90625 1.640625 -1.828125 1.640625 -1.796875 C 1.640625 -1.640625 1.691406 -1.535156 1.796875 -1.484375 C 1.898438 -1.441406 2.082031 -1.414062 2.34375 -1.40625 L 2.671875 -1.390625 C 2.972656 -1.367188 3.304688 -1.359375 3.671875 -1.359375 C 4.585938 -1.359375 5.171875 -1.535156 5.421875 -1.890625 C 5.578125 -2.109375 5.6875 -2.390625 5.75 -2.734375 C 5.820312 -3.085938 5.882812 -3.503906 5.9375 -3.984375 L 6 -4.578125 C 6.3125 -6.554688 6.53125 -8.550781 6.65625 -10.5625 Z M 6.65625 -10.5625 "/></g></g></g><g fill="#ffffff" fill-opacity="1"><g transform="translate(78.718576, 30.710793)"><g><path d="M 7.15625 -8.75 C 7.050781 -7.5625 6.285156 -6.65625 4.859375 -6.03125 C 5.429688 -5.726562 5.785156 -5.222656 5.921875 -4.515625 C 5.972656 -4.234375 6 -3.867188 6 -3.421875 C 6 -3.160156 5.988281 -2.765625 5.96875 -2.234375 L 5.953125 -1.71875 C 5.953125 -1.09375 6.082031 -0.75 6.34375 -0.6875 C 6.550781 -0.632812 6.65625 -0.546875 6.65625 -0.421875 C 6.65625 -0.273438 6.53125 -0.125 6.28125 0.03125 C 6.039062 0.1875 5.816406 0.265625 5.609375 0.265625 C 5.554688 0.265625 5.519531 0.257812 5.5 0.25 C 5.082031 0.15625 4.800781 -0.046875 4.65625 -0.359375 C 4.507812 -0.679688 4.4375 -1.09375 4.4375 -1.59375 C 4.4375 -1.757812 4.445312 -2 4.46875 -2.3125 C 4.488281 -2.601562 4.5 -2.804688 4.5 -2.921875 C 4.507812 -3.367188 4.484375 -3.757812 4.421875 -4.09375 C 4.359375 -4.425781 4.222656 -4.710938 4.015625 -4.953125 C 3.753906 -5.242188 3.375 -5.398438 2.875 -5.421875 C 2.789062 -5.410156 2.632812 -5.378906 2.40625 -5.328125 L 1.578125 -0.9375 C 1.535156 -0.757812 1.394531 -0.609375 1.15625 -0.484375 C 0.914062 -0.359375 0.675781 -0.296875 0.4375 -0.296875 C 0.3125 -0.296875 0.210938 -0.320312 0.140625 -0.375 C 0.0664062 -0.4375 0.0390625 -0.515625 0.0625 -0.609375 C 0.40625 -2.421875 0.695312 -3.925781 0.9375 -5.125 C 0.664062 -5.113281 0.53125 -5.191406 0.53125 -5.359375 C 0.53125 -5.460938 0.585938 -5.582031 0.703125 -5.71875 C 0.816406 -5.863281 0.945312 -5.96875 1.09375 -6.03125 L 1.765625 -9.59375 C 1.804688 -9.738281 1.851562 -9.96875 1.90625 -10.28125 C 1.789062 -10.238281 1.675781 -10.21875 1.5625 -10.21875 C 1.4375 -10.21875 1.335938 -10.242188 1.265625 -10.296875 C 1.191406 -10.359375 1.15625 -10.429688 1.15625 -10.515625 C 1.15625 -10.597656 1.203125 -10.691406 1.296875 -10.796875 C 1.390625 -10.898438 1.523438 -10.988281 1.703125 -11.0625 C 2.054688 -11.226562 2.476562 -11.335938 2.96875 -11.390625 C 3.4375 -11.441406 3.859375 -11.46875 4.234375 -11.46875 C 5.234375 -11.46875 5.972656 -11.273438 6.453125 -10.890625 C 6.929688 -10.503906 7.171875 -9.921875 7.171875 -9.140625 C 7.171875 -8.960938 7.164062 -8.832031 7.15625 -8.75 Z M 5.640625 -8.171875 C 5.703125 -8.359375 5.734375 -8.53125 5.734375 -8.6875 C 5.734375 -9.207031 5.5 -9.617188 5.03125 -9.921875 C 4.5625 -10.222656 4.007812 -10.394531 3.375 -10.4375 L 2.59375 -6.3125 C 2.65625 -6.3125 2.75 -6.320312 2.875 -6.34375 C 3.59375 -6.46875 4.191406 -6.664062 4.671875 -6.9375 C 5.160156 -7.21875 5.484375 -7.628906 5.640625 -8.171875 Z M 5.640625 -8.171875 "/></g></g></g><g fill="#ffffff" fill-opacity="1"><g transform="translate(85.843245, 30.710793)"><g><path d="M 7.8125 -10.390625 C 7.90625 -9.578125 7.972656 -8.925781 8.015625 -8.4375 C 8.054688 -7.945312 8.078125 -7.4375 8.078125 -6.90625 C 8.078125 -4.78125 7.601562 -3.171875 6.65625 -2.078125 C 6.125 -1.472656 5.519531 -1.003906 4.84375 -0.671875 C 4.164062 -0.335938 3.476562 -0.171875 2.78125 -0.171875 C 2.195312 -0.171875 1.632812 -0.296875 1.09375 -0.546875 C 0.5625 -0.804688 0.078125 -1.191406 -0.359375 -1.703125 C -0.410156 -1.773438 -0.4375 -1.84375 -0.4375 -1.90625 C -0.4375 -2.070312 -0.316406 -2.222656 -0.078125 -2.359375 C 0.148438 -2.503906 0.378906 -2.578125 0.609375 -2.578125 C 0.765625 -2.578125 0.882812 -2.53125 0.96875 -2.4375 C 1.6875 -1.582031 2.425781 -1.15625 3.1875 -1.15625 C 3.550781 -1.15625 3.898438 -1.242188 4.234375 -1.421875 C 4.617188 -1.617188 4.960938 -1.875 5.265625 -2.1875 C 5.578125 -2.507812 5.816406 -2.867188 5.984375 -3.265625 C 6.398438 -4.191406 6.609375 -5.367188 6.609375 -6.796875 C 6.265625 -6.273438 5.863281 -5.863281 5.40625 -5.5625 C 4.945312 -5.257812 4.4375 -5.109375 3.875 -5.109375 C 3.21875 -5.109375 2.75 -5.3125 2.46875 -5.71875 C 2.1875 -6.132812 2.046875 -6.679688 2.046875 -7.359375 C 2.046875 -7.921875 2.109375 -8.488281 2.234375 -9.0625 C 2.367188 -9.632812 2.546875 -10.28125 2.765625 -11 C 2.816406 -11.144531 2.96875 -11.273438 3.21875 -11.390625 C 3.46875 -11.515625 3.695312 -11.578125 3.90625 -11.578125 C 4.019531 -11.578125 4.109375 -11.550781 4.171875 -11.5 C 4.234375 -11.457031 4.25 -11.394531 4.21875 -11.3125 L 4.140625 -10.984375 C 4.035156 -10.609375 3.929688 -10.222656 3.828125 -9.828125 C 3.734375 -9.429688 3.660156 -9.0625 3.609375 -8.71875 C 3.535156 -8.207031 3.5 -7.816406 3.5 -7.546875 C 3.5 -6.847656 3.675781 -6.398438 4.03125 -6.203125 C 4.144531 -6.140625 4.257812 -6.109375 4.375 -6.109375 C 4.75 -6.109375 5.082031 -6.40625 5.375 -7 C 5.675781 -7.601562 5.90625 -8.28125 6.0625 -9.03125 C 6.21875 -9.78125 6.289062 -10.316406 6.28125 -10.640625 C 6.269531 -10.804688 6.367188 -10.953125 6.578125 -11.078125 C 6.785156 -11.210938 7.003906 -11.28125 7.234375 -11.28125 C 7.535156 -11.28125 7.703125 -11.160156 7.734375 -10.921875 L 7.734375 -10.828125 L 7.765625 -10.703125 Z M 7.8125 -10.390625 "/></g></g></g></svg>